<svg width="24" height="24" viewBox="0 0 24 24" fill="none" xmlns="http://www.w3.org/2000/svg">
<path d="M3.59961 6.59961H5.45675H20.3139" fill="#9B9EA0"/>
<path d="M3.59961 6.59961H5.45675H20.3139" stroke="#9B9EA0" stroke-width="1.5" stroke-linecap="round" stroke-linejoin="round"/>
<path d="M3.59961 6.59961H5.45675H20.3139" stroke="#9B9EA0" stroke-width="1.5" stroke-linecap="round" stroke-linejoin="round"/>
<path d="M8.24177 6.6V4.8C8.24177 4.32261 8.43743 3.86477 8.78571 3.52721C9.134 3.18964 9.60637 3 10.0989 3H13.8132C14.3057 3 14.7781 3.18964 15.1264 3.52721C15.4747 3.86477 15.6703 4.32261 15.6703 4.8V6.6M18.4561 6.6V19.2C18.4561 19.6774 18.2604 20.1352 17.9121 20.4728C17.5638 20.8104 17.0915 21 16.5989 21H7.3132C6.82065 21 6.34828 20.8104 6 20.4728C5.65172 20.1352 5.45605 19.6774 5.45605 19.2V6.6H18.4561Z" stroke="#9B9EA0" stroke-width="1.5" stroke-linecap="round" stroke-linejoin="round"/>
<path d="M8.24177 6.6V4.8C8.24177 4.32261 8.43743 3.86477 8.78571 3.52721C9.134 3.18964 9.60637 3 10.0989 3H13.8132C14.3057 3 14.7781 3.18964 15.1264 3.52721C15.4747 3.86477 15.6703 4.32261 15.6703 4.8V6.6M18.4561 6.6V19.2C18.4561 19.6774 18.2604 20.1352 17.9121 20.4728C17.5638 20.8104 17.0915 21 16.5989 21H7.3132C6.82065 21 6.34828 20.8104 6 20.4728C5.65172 20.1352 5.45605 19.6774 5.45605 19.2V6.6H18.4561Z" stroke="#9B9EA0" stroke-width="1.5" stroke-linecap="round" stroke-linejoin="round"/>
<path d="M10.0967 11.0996V16.4996" stroke="#9B9EA0" stroke-width="1.5" stroke-linecap="round" stroke-linejoin="round"/>
<path d="M10.0967 11.0996V16.4996" stroke="#9B9EA0" stroke-width="1.5" stroke-linecap="round" stroke-linejoin="round"/>
<path d="M13.8135 11.0996V16.4996" stroke="#9B9EA0" stroke-width="1.5" stroke-linecap="round" stroke-linejoin="round"/>
<path d="M13.8135 11.0996V16.4996" stroke="#9B9EA0" stroke-width="1.5" stroke-linecap="round" stroke-linejoin="round"/>
</svg>
